<?xml version="1.0" encoding="UTF-8"?>
<svg xmlns="http://www.w3.org/2000/svg" xmlns:xlink="http://www.w3.org/1999/xlink" version="1.1" viewBox="0 0 215.8 54">
  <!-- Generator: Adobe Illustrator 29.4.0, SVG Export Plug-In . SVG Version: 2.1.0 Build 152)  -->
  <defs>
    <style>
      .st0 {
        fill: #fef3c7;
      }

      .st1 {
        fill: #065f46;
      }

      .st2 {
        fill: #e1f0ff;
      }

      .st3 {
        fill: url(#Unbenannter_Verlauf_6);
      }

      .st4 {
        fill: #ede9fe;
      }

      .st5 {
        fill: #ef4444;
      }

      .st6 {
        fill: #d5f5f6;
      }

      .st7 {
        fill: #5b21b6;
      }

      .st8 {
        fill: #3b82f6;
      }

      .st9 {
        fill: #f8fafc;
      }

      .st10 {
        fill: #c2410c;
      }

      .st11 {
        fill: #1e40af;
      }

      .st12 {
        fill: #dcfce7;
      }

      .st13 {
        fill: #fecaca;
      }

      .st14 {
        fill: #e2e8f0;
      }

      .st15 {
        fill: #fff;
      }

      .st16 {
        fill: #0f766e;
      }

      .st17 {
        fill: #14b8a6;
      }

      .st18 {
        fill: #ffedd5;
      }

      .st19 {
        fill: #fb923c;
      }

      .st20 {
        fill: #64748b;
      }

      .st21 {
        fill: #1e293b;
      }

      .st22 {
        fill: url(#Unbenannter_Verlauf_21);
      }

      .st23 {
        fill: url(#Unbenannter_Verlauf_26);
      }

      .st24 {
        fill: url(#Unbenannter_Verlauf_16);
      }

      .st25 {
        fill: url(#Unbenannter_Verlauf_30);
      }

      .st26 {
        fill: url(#Unbenannter_Verlauf_11);
      }

      .st27 {
        fill: #f59e0b;
      }

      .st28 {
        fill: #10b981;
      }

      .st29 {
        display: none;
      }

      .st30 {
        fill: #8b5cf6;
      }
    </style>
    <linearGradient id="Unbenannter_Verlauf_6" data-name="Unbenannter Verlauf 6" x1="260.8" y1="263.3" x2="277.3" y2="263.3" gradientUnits="userSpaceOnUse">
      <stop offset="0" stop-color="#e1f0ff"/>
      <stop offset="1" stop-color="#ede9fe"/>
    </linearGradient>
    <linearGradient id="Unbenannter_Verlauf_11" data-name="Unbenannter Verlauf 11" x1="260.8" y1="298.3" x2="277.3" y2="298.3" gradientUnits="userSpaceOnUse">
      <stop offset="0" stop-color="#ffedd5"/>
      <stop offset="1" stop-color="#d5f5f6"/>
    </linearGradient>
    <linearGradient id="Unbenannter_Verlauf_16" data-name="Unbenannter Verlauf 16" x1="260.8" y1="333.2" x2="277.3" y2="333.2" gradientUnits="userSpaceOnUse">
      <stop offset="0" stop-color="#dcfce7"/>
      <stop offset="1" stop-color="#dcfce7"/>
    </linearGradient>
    <linearGradient id="Unbenannter_Verlauf_21" data-name="Unbenannter Verlauf 21" x1="260.8" y1="368.2" x2="277.3" y2="368.2" gradientUnits="userSpaceOnUse">
      <stop offset="0" stop-color="#ede9fe"/>
      <stop offset="1" stop-color="#ffedd5"/>
    </linearGradient>
    <linearGradient id="Unbenannter_Verlauf_26" data-name="Unbenannter Verlauf 26" x1="260.8" y1="403.2" x2="277.3" y2="403.2" gradientUnits="userSpaceOnUse">
      <stop offset="0" stop-color="#e1f0ff"/>
      <stop offset="1" stop-color="#dcfce7"/>
    </linearGradient>
    <linearGradient id="Unbenannter_Verlauf_30" data-name="Unbenannter Verlauf 30" x1="260.8" y1="438.1" x2="277.3" y2="438.1" gradientUnits="userSpaceOnUse">
      <stop offset="0" stop-color="#ffedd5"/>
      <stop offset="1" stop-color="#dcfce7"/>
    </linearGradient>
  </defs>
  <g id="Font" class="st29">
    <g>
      <path class="st7" d="M1.3,54V3.6h10.2v40.2h21.9v10.2H1.3ZM4.1,51.3h26.5v-4.6H8.7V6.3h-4.6v44.9Z"/>
      <path class="st7" d="M47.5,54l-7.4-7.4v-24l7.4-7.4h22.5l7.4,7.4v24l-7.4,7.4h-22.5ZM49.1,51.2h19.4l6-6v-21.2l-6-6h-19.5l-6.1,6.1v21l6.2,6.2ZM51.4,46.6l-3.9-3.8v-16.6l3.7-3.7h15.1l3.7,3.6v16.8l-3.7,3.6h-14.9ZM52.4,43.8h12.6l2.2-2.2v-14.1l-2.2-2.2h-12.6l-2.2,2.2v14.1l2.2,2.2Z"/>
      <path class="st7" d="M85.3,54v-31.5l7.4-7.4h13.9l3.7,3.7,3.7-3.7h13.9l7.4,7.4v31.5h-10.2v-26.5l-2.2-2.2h-5.4l-2.2,2.2v24.3h-10.2v-24.3l-2.2-2.2h-5.4l-2.2,2.2v26.5h-10.2ZM88.1,51.2h4.6v-25.1l3.7-3.7h7.7l3.9,3.9v23h4.6v-23l3.9-3.9h7.7l3.7,3.7v25.1h4.6v-27.3l-6.1-6.1h-11.6l-4.6,4.6-4.7-4.6h-11.5l-6.1,6.1v27.3Z"/>
      <path class="st7" d="M143.4,54v-10.2h9.6v-18.5h-9.6v-10.2h19.8v28.7h9.6v10.2h-29.4ZM146.1,51.2h23.9v-4.6h-9.8v-28.8h-14v4.6h9.4v24.2h-9.4v4.6ZM151.5,9.5V0h11.6v9.5h-11.6ZM154.7,6.9h5.3V2.3h-5.3v4.6Z"/>
      <path class="st7" d="M178.3,54v-10.2h7v-18l-.5-.5h-6.4v-10.2h9.1l2.4,2.9,2.8-2.9h14l7.9,7.9-7.8,7.6-5-5.3h-4.1l-2.2,2.2v16.4h7v10.1h-24.2ZM180.9,51.2h18.9v-4.6h-7.2v-20.7l3.3-3.3h7.4l3.7,4.1,3.6-3.5-5.1-5.3h-11.8l-3.7,3.7-3.4-3.7h-5.7v4.6h4.7l2.4,2.6v21.5h-7.1v4.6Z"/>
    </g>
  </g>
  <g id="Vector">
    <g>
      <rect class="st6" x="66.1" y="255" width="16.5" height="16.6"/>
      <rect class="st17" x="66.1" y="290" width="16.5" height="16.6"/>
      <rect class="st16" x="66.1" y="324.9" width="16.5" height="16.6"/>
      <rect class="st4" x="23.1" y="255" width="16.5" height="16.6"/>
      <rect class="st30" x="23.1" y="290" width="16.5" height="16.6"/>
      <rect class="st7" x="23.1" y="324.9" width="16.5" height="16.6"/>
      <rect class="st2" x="-24.5" y="255" width="16.5" height="16.6"/>
      <rect class="st8" x="-24.5" y="290" width="16.5" height="16.6"/>
      <rect class="st11" x="-24.5" y="324.9" width="16.5" height="16.6"/>
      <rect class="st18" x="105.1" y="255" width="16.5" height="16.6"/>
      <rect class="st19" x="105.1" y="290" width="16.5" height="16.6"/>
      <rect class="st10" x="105.1" y="324.9" width="16.5" height="16.6"/>
      <rect class="st12" x="147.1" y="255" width="16.5" height="16.6"/>
      <rect class="st28" x="147.1" y="290" width="16.5" height="16.6"/>
      <rect class="st1" x="147.1" y="324.9" width="16.5" height="16.6"/>
      <rect class="st15" x="189.1" y="255" width="16.5" height="16.6"/>
      <rect class="st9" x="189.1" y="290" width="16.5" height="16.6"/>
      <rect class="st14" x="189.1" y="324.9" width="16.5" height="16.6"/>
      <rect class="st20" x="189.1" y="359.9" width="16.5" height="16.6"/>
      <rect class="st21" x="189.1" y="394.8" width="16.5" height="16.6"/>
      <rect class="st28" x="226.1" y="255" width="16.5" height="16.6"/>
      <rect class="st5" x="226.1" y="290" width="16.5" height="16.6"/>
      <rect class="st13" x="226.1" y="324.9" width="16.5" height="16.6"/>
      <rect class="st27" x="226.1" y="359.9" width="16.5" height="16.6"/>
      <rect class="st0" x="226.1" y="394.8" width="16.5" height="16.6"/>
      <rect class="st8" x="226.1" y="429.8" width="16.5" height="16.6"/>
      <rect class="st3" x="260.8" y="255" width="16.5" height="16.6"/>
      <rect class="st26" x="260.8" y="290" width="16.5" height="16.6"/>
      <rect class="st24" x="260.8" y="324.9" width="16.5" height="16.6"/>
      <rect class="st22" x="260.8" y="359.9" width="16.5" height="16.6"/>
      <rect class="st23" x="260.8" y="394.8" width="16.5" height="16.6"/>
      <rect class="st25" x="260.8" y="429.8" width="16.5" height="16.6"/>
    </g>
    <g>
      <path class="st7" d="M1.3,54V3.6h10.2v40.2h21.9v10.2H1.3ZM4.1,51.3h26.5v-4.6H8.7V6.3h-4.6v44.9Z"/>
      <path class="st7" d="M47.5,54l-7.4-7.4v-24l7.4-7.4h22.5l7.4,7.4v24l-7.4,7.4h-22.5ZM49.1,51.2h19.4l6-6v-21.2l-6-6h-19.5l-6.1,6.1v21l6.2,6.2ZM51.4,46.6l-3.9-3.8v-16.6l3.7-3.7h15.1l3.7,3.6v16.8l-3.7,3.6h-14.9ZM52.4,43.8h12.6l2.2-2.2v-14.1l-2.2-2.2h-12.6l-2.2,2.2v14.1l2.2,2.2Z"/>
      <path class="st7" d="M85.3,54v-31.5l7.4-7.4h13.9l3.7,3.7,3.7-3.7h13.9l7.4,7.4v31.5h-10.2v-26.5l-2.2-2.2h-5.4l-2.2,2.2v24.3h-10.2v-24.3l-2.2-2.2h-5.4l-2.2,2.2v26.5h-10.2ZM88.1,51.2h4.6v-25.1l3.7-3.7h7.7l3.9,3.9v23h4.6v-23l3.9-3.9h7.7l3.7,3.7v25.1h4.6v-27.3l-6.1-6.1h-11.6l-4.6,4.6-4.7-4.6h-11.5l-6.1,6.1v27.3Z"/>
      <path class="st7" d="M143.4,54v-10.2h9.6v-18.5h-9.6v-10.2h19.8v28.7h9.6v10.2h-29.4ZM146.1,51.2h23.9v-4.6h-9.8v-28.8h-14v4.6h9.4v24.2h-9.4v4.6ZM151.5,9.5V0h11.6v9.5h-11.6ZM154.7,6.9h5.3V2.3h-5.3v4.6Z"/>
      <path class="st7" d="M178.3,54v-10.2h7v-18l-.5-.5h-6.4v-10.2h9.1l2.4,2.9,2.8-2.9h14l7.9,7.9-7.8,7.6-5-5.3h-4.1l-2.2,2.2v16.4h7v10.1h-24.2ZM180.9,51.2h18.9v-4.6h-7.2v-20.7l3.3-3.3h7.4l3.7,4.1,3.6-3.5-5.1-5.3h-11.8l-3.7,3.7-3.4-3.7h-5.7v4.6h4.7l2.4,2.6v21.5h-7.1v4.6Z"/>
    </g>
  </g>
</svg>