<?xml version="1.0" encoding="UTF-8"?>
<svg id="a" data-name="Vector" xmlns="http://www.w3.org/2000/svg" width="100" height="130.881" viewBox="0 0 100 130.881">
  <path d="M87.976,34.274c-5.349-5.426-12.802-9.03-22.334-10.836h.019c-.334-.094-.599-.45-.584-.797.17-4.077,1.064-12.513,5.45-16.601.892-.831.652-1.443-.567-1.405-3.29.102-9.412,1.522-13.376,9.92-.473,1.001-1.155.951-1.497-.101l-4.318-13.321c-.423-1.305-1.115-1.305-1.538,0l-4.318,13.321c-.341,1.053-1.024,1.102-1.496.101-3.964-8.398-10.086-9.818-13.376-9.92-1.219-.038-1.458.574-.567,1.405,4.386,4.088,5.28,12.525,5.45,16.601.012.29-.174.576-.429.72-9.571,1.761-17.067,5.336-22.47,10.739C4.006,42.119,0,53.854,0,69.309,0,81.652,2.306,92.435,6.92,101.662c4.612,9.229,10.754,16.379,18.427,21.453,7.669,5.077,16.176,7.613,25.518,7.613,8.997,0,17.216-2.536,24.655-7.613,7.44-5.074,13.378-12.197,17.821-21.366,4.438-9.17,6.66-19.867,6.66-32.094,0-15.455-4.008-27.25-12.024-35.381ZM29.38,38.82c3.964-4.206,11.017-6.813,15.826-2.624,3.554,2.983,2.243,8.14-.243,11.387-2.45,3.305-5.946,5.519-8.701,8.468-4.066,3.719-6.288,12.103,1.204,13.06,2.494.358,4.98-.187,7.147.864,1.749.844,1.813,3.003.463,4.202-2.291,2.037-5.604,2.337-8.576,2.728l-.085.009c-4.343.683-8.735-1.131-11.117-4.862-6.245-9.125-3.152-25.39,4.082-33.231ZM50.993,107.493c-.338,2.525-.815,4.598-1.401,6.312-.586,1.714-1.177,2.939-1.797,3.793-.619.854-1.223,1.2-1.89,1.111-.481-.064-.913-.415-1.316-1.077-.404-.662-.776-1.809-1.072-3.624-.177-1.089-.381-2.298-.609-3.647-.228-1.348-.53-2.683-.918-3.979-.388-1.295-.925-2.408-1.608-3.329-.683-.921-1.56-1.472-2.61-1.657-.953-.168-1.622.032-1.999.608-.377.576-.581,1.344-.603,2.288-.022.944-.032,1.9-.008,2.824.042,1.641.044,3.171.008,4.556-.036,1.385-.166,2.391-.416,3.085-.25.694-.715.854-1.476.532-.516-.218-1.004-.587-1.475-1.107-.471-.521-.925-1.136-1.345-1.864s-.798-1.481-1.125-2.265c-.477-1.143-.959-2.391-1.439-3.754-.48-1.364-.979-2.719-1.519-4.038-.54-1.319-1.146-2.489-1.838-3.494-.694-1.006-1.522-1.718-2.486-2.138-1.051-.458-1.726-.347-1.992.33-.266.676-.275,1.679.01,2.967.285,1.288.706,2.635,1.274,4.016.568,1.382,1.088,2.564,1.555,3.552.499,1.055.82,1.673.876,1.927.056.254.01.319-.164.212-.175-.107-.312-.203-.415-.286-.435-.345-1.073-.966-1.926-1.887-.852-.92-1.757-1.947-2.683-3.102-.861-1.075-1.894-2.449-3.017-4.198-1.123-1.748-2.207-3.674-3.183-5.811-.977-2.135-1.764-4.317-2.351-6.532-.586-2.215-.882-4.259-1.021-5.941-.354-4.29.278-6.953,1.407-8.266,1.129-1.312,2.546-1.514,4.145-.688.969.501,1.84,1.265,2.629,2.305.79,1.041,1.431,2.303,1.949,3.817.136.403.269.751.398,1.043.128.293.297.485.506.577.238.104.448.068.633-.109.184-.177.476-.434.881-.774.872-.738,1.716-1.261,2.516-1.58.799-.319,1.7-.294,2.711.054,1.256.433,2.404,1.203,3.462,2.335,1.059,1.132,1.877,2.295,2.436,3.524.164.335.313.644.447.929.133.284.332.458.596.518.264.06.495-.017.691-.228.197-.211.508-.524.939-.94.961-.94,1.888-1.685,2.774-2.247.885-.561,1.932-.762,3.16-.633,1.719.181,3.376.862,4.965,2.096,1.589,1.233,3.011,3.076,3.848,5.655.837,2.578,1.259,6.064,1.316,10.163.04,2.847-.093,5.544-.431,8.067ZM65.877,99.785c-.357,3.152-.846,6.056-1.469,8.582-.623,2.527-1.261,4.539-1.867,6.14-.478,1.263-1.016,2.217-1.569,2.914-.554.697-1.199,1.087-1.956,1.185-.758.098-1.317-.138-1.705-.714-.388-.577-.704-1.429-.934-2.597-.293-1.488-.606-3.373-.989-5.75-.383-2.376-.772-5.125-1.089-8.165-.317-3.039-.47-6.288-.52-9.494-.038-2.429.196-4.468.701-6.153.505-1.685,1.181-2.971,2.044-3.896.862-.925,1.813-1.464,2.882-1.631,1.092-.171,2.135.056,3.13.706.995.65,1.865,1.724,2.568,3.257.703,1.534,1.124,3.511,1.197,5.954.097,3.224-.067,6.512-.425,9.663ZM60.674,77.003c-2.859,0-5.463-.776-7.81-2.33-2.348-1.553-4.228-3.741-5.639-6.566-1.412-2.824-2.118-6.124-2.118-9.902,0-4.73,1.226-8.322,3.68-10.776,1.654-1.654,3.948-2.748,6.877-3.287.078-.044.135-.132.132-.22-.052-1.248-.326-3.83-1.668-5.081-.273-.254-.199-.442.174-.43,1.007.031,2.88.466,4.094,3.036.145.306.354.291.458-.031l1.322-4.077c.129-.399.341-.399.471,0l1.322,4.077c.104.322.313.337.458.031,1.213-2.57,3.087-3.005,4.094-3.036.373-.012.446.176.174.43-1.343,1.251-1.616,3.833-1.668,5.081-.004.106.076.215.179.244h-.006c2.917.553,5.198,1.656,6.835,3.316,2.453,2.489,3.68,6.098,3.68,10.829,0,3.742-.68,7.016-2.038,9.822-1.36,2.806-3.177,4.986-5.454,6.539-2.277,1.554-4.792,2.33-7.546,2.33ZM93.705,84.116c-.662,1.986-1.53,3.73-2.52,5.22-.99,1.49-2.067,2.568-3.24,3.214-.733.404-1.367.557-1.913.466-.547-.091-1.094-.2-1.635-.324s-1.203-.014-1.971.325c-.799.353-1.501,1.074-2.11,2.165-.61,1.092-1.143,2.385-1.625,3.866-.483,1.482-.948,3.061-1.432,4.648-.485,1.588-.995,3.054-1.517,4.413s-1.082,2.492-1.595,3.435c-.595,1.093-1.208,2.022-1.819,2.769-.612.747-1.164,1.213-1.669,1.419-.53.216-.857.101-1.021-.367-.165-.468-.222-1.232-.18-2.319.054-1.399.118-3.193.068-5.466-.051-2.273-.173-4.947-.324-7.88-.152-2.932-.251-6.071-.324-9.258-.08-3.493.335-6.285,1.384-8.467,1.048-2.182,2.349-3.509,4.01-4.05.99-.322,1.988-.335,2.988-.029,1,.306,1.927,1.002,2.732,2.11.194.281.372.511.536.69.165.18.375.219.634.117.258-.102.467-.318.625-.646.157-.329.396-.778.713-1.352.747-1.37,1.504-2.614,2.285-3.735.781-1.121,1.962-2.037,3.567-2.798,1.736-.822,3.322-.76,4.618.245,1.297,1.005,1.982,2.854,1.88,5.592-.075,2.012-.481,4.015-1.143,6.001Z" fill="#fff"/>
  <path d="M63.581,62.013c-.703-1.036-1.739-1.555-3.108-1.555-1.406,0-2.46.518-3.162,1.555-.703,1.036-1.053,2.503-1.053,4.399,0,1.968.35,3.478,1.053,4.531.702,1.054,1.757,1.581,3.162,1.581,1.369,0,2.406-.527,3.108-1.581.702-1.054,1.054-2.564,1.054-4.531,0-1.897-.351-3.363-1.054-4.399Z" fill="#fff"/>
</svg>