<?xml version="1.0" encoding="UTF-8"?>
<svg id="a" data-name="Vector" xmlns="http://www.w3.org/2000/svg" width="100" height="130.881" viewBox="0 0 100 130.881">
  <g opacity=".6">
    <path d="M87.976,34.274c-5.349-5.426-12.802-9.03-22.335-10.836h.019c-.334-.094-.599-.45-.584-.797.17-4.077,1.064-12.513,5.45-16.601.892-.831.652-1.443-.567-1.405-3.29.102-9.412,1.522-13.376,9.92-.473,1.001-1.155.951-1.496-.101l-4.318-13.321c-.423-1.305-1.115-1.305-1.538,0l-4.318,13.321c-.341,1.053-1.024,1.102-1.496.101-3.964-8.398-10.086-9.818-13.376-9.92-1.219-.038-1.458.574-.567,1.405,4.386,4.088,5.28,12.525,5.45,16.601.012.29-.174.576-.429.72-9.571,1.761-17.067,5.336-22.47,10.739C4.006,42.119,0,53.854,0,69.309,0,81.652,2.307,92.435,6.92,101.662c4.612,9.229,10.754,16.379,18.427,21.453,7.669,5.077,16.176,7.613,25.518,7.613,8.997,0,17.216-2.536,24.654-7.613,7.44-5.074,13.378-12.197,17.821-21.366,4.438-9.17,6.66-19.867,6.66-32.094,0-15.455-4.008-27.25-12.024-35.381Z" fill="#fff"/>
  </g>
  <path d="M72.032,47.483c-1.637-1.661-3.918-2.764-6.836-3.316h.006c-.102-.029-.183-.138-.179-.244.052-1.248.326-3.83,1.668-5.081.273-.254.199-.442-.174-.43-1.007.031-2.88.466-4.094,3.036-.145.306-.354.291-.458-.031l-1.322-4.077c-.129-.399-.341-.399-.471,0l-1.322,4.077c-.105.322-.313.337-.458.031-1.213-2.57-3.087-3.005-4.094-3.036-.373-.012-.446.176-.174.43,1.342,1.251,1.616,3.833,1.668,5.081.004.089-.053.176-.132.22-2.929.539-5.223,1.633-6.877,3.287-2.454,2.454-3.68,6.046-3.68,10.776,0,3.778.706,7.078,2.118,9.902,1.411,2.825,3.291,5.013,5.64,6.566,2.347,1.554,4.951,2.33,7.81,2.33,2.754,0,5.269-.776,7.546-2.33,2.277-1.553,4.095-3.733,5.454-6.539,1.358-2.806,2.038-6.08,2.038-9.822,0-4.73-1.227-8.34-3.68-10.829ZM63.581,70.944c-.703,1.054-1.739,1.581-3.109,1.581-1.405,0-2.46-.527-3.162-1.581-.703-1.054-1.054-2.564-1.054-4.531,0-1.897.351-3.363,1.054-4.4.702-1.036,1.757-1.555,3.162-1.555,1.369,0,2.406.518,3.109,1.555.702,1.036,1.054,2.503,1.054,4.4,0,1.968-.351,3.478-1.054,4.531Z" fill="#fff"/>
  <path d="M44.613,69.974c-2.167-1.05-4.653-.505-7.147-.864-7.492-.957-5.27-9.341-1.204-13.06,2.755-2.949,6.251-5.163,8.701-8.468,2.486-3.248,3.797-8.404.243-11.387-4.809-4.189-11.863-1.582-15.826,2.624-7.234,7.841-10.327,24.106-4.082,33.231,2.382,3.732,6.774,5.545,11.117,4.862l.085-.009c2.972-.391,6.285-.691,8.576-2.728,1.35-1.199,1.286-3.357-.463-4.202Z" fill="#fff"/>
  <path d="M92.969,72.524c-1.296-1.005-2.883-1.067-4.618-.244-1.605.761-2.786,1.677-3.568,2.798-.781,1.121-1.538,2.365-2.285,3.735-.317.573-.555,1.023-.713,1.352-.157.329-.367.545-.625.646-.259.102-.469.063-.634-.117-.164-.179-.342-.409-.536-.69-.804-1.108-1.731-1.805-2.732-2.11-1-.306-1.999-.293-2.988.029-1.661.541-2.962,1.869-4.01,4.05-1.049,2.182-1.464,4.974-1.384,8.467.073,3.188.172,6.326.324,9.258.151,2.933.273,5.607.324,7.88.051,2.273-.014,4.068-.068,5.466-.042,1.087.016,1.852.18,2.319.165.468.492.583,1.021.367.505-.206,1.057-.672,1.669-1.419.611-.747,1.224-1.675,1.82-2.769.514-.943,1.073-2.076,1.595-3.435s1.032-2.824,1.517-4.413c.484-1.587.949-3.166,1.432-4.648.482-1.481,1.015-2.774,1.625-3.866.609-1.091,1.311-1.812,2.11-2.165.768-.339,1.43-.45,1.971-.325.541.125,1.088.233,1.635.324.546.091,1.18-.062,1.914-.466,1.172-.645,2.249-1.724,3.24-3.214.99-1.49,1.858-3.234,2.52-5.22.662-1.986,1.068-3.989,1.143-6.001.103-2.738-.583-4.587-1.88-5.592Z" fill="#fff"/>
  <path d="M50.107,89.263c-.838-2.578-2.26-4.422-3.848-5.655-1.589-1.233-3.245-1.915-4.965-2.096-1.228-.129-2.275.072-3.16.633-.886.562-1.813,1.308-2.774,2.247-.431.417-.743.729-.939.94-.196.211-.427.287-.691.228-.265-.06-.463-.234-.596-.518-.134-.285-.283-.594-.447-.929-.559-1.229-1.377-2.392-2.436-3.524-1.058-1.131-2.207-1.902-3.462-2.335-1.011-.349-1.912-.373-2.711-.054-.8.319-1.644.843-2.516,1.58-.404.34-.697.598-.881.774-.185.176-.395.213-.633.109-.209-.092-.377-.284-.506-.577-.128-.292-.262-.64-.398-1.043-.518-1.514-1.159-2.776-1.949-3.817-.79-1.041-1.66-1.805-2.63-2.305-1.599-.826-3.015-.624-4.145.688-1.129,1.313-1.761,3.976-1.407,8.266.139,1.682.435,3.726,1.021,5.941.586,2.215,1.374,4.396,2.351,6.532.976,2.136,2.061,4.062,3.183,5.811,1.123,1.749,2.156,3.123,3.017,4.198.926,1.156,1.831,2.182,2.683,3.102.852.921,1.491,1.541,1.926,1.887.103.082.24.178.415.286.175.107.22.042.164-.212-.056-.254-.377-.872-.876-1.927-.467-.989-.987-2.17-1.555-3.552-.568-1.381-.988-2.728-1.274-4.016-.286-1.288-.276-2.291-.01-2.967.266-.676.94-.788,1.992-.33.964.42,1.792,1.132,2.486,2.138.693,1.005,1.298,2.176,1.838,3.494.54,1.319,1.039,2.674,1.519,4.038.48,1.363.962,2.611,1.439,3.754.327.784.705,1.537,1.125,2.265.42.728.874,1.343,1.345,1.864.471.521.959.889,1.475,1.107.761.322,1.226.162,1.476-.532.25-.694.381-1.699.416-3.085.035-1.385.034-2.915-.008-4.556-.024-.924-.014-1.88.008-2.824.022-.943.226-1.711.603-2.288.377-.576,1.045-.776,1.999-.608,1.051.185,1.927.737,2.61,1.657.683.921,1.22,2.034,1.608,3.329.389,1.296.69,2.63.919,3.979.228,1.349.431,2.558.609,3.647.296,1.815.669,2.963,1.072,3.624.403.661.835,1.012,1.316,1.077.667.089,1.271-.256,1.89-1.111.62-.854,1.211-2.078,1.797-3.793.586-1.714,1.063-3.787,1.401-6.312.338-2.523.471-5.22.431-8.067-.058-4.098-.479-7.585-1.317-10.163Z" fill="#fff"/>
  <path d="M66.301,90.122c-.073-2.443-.494-4.42-1.197-5.954-.703-1.533-1.572-2.607-2.568-3.257-.996-.65-2.038-.877-3.13-.706-1.069.167-2.02.707-2.882,1.631-.862.926-1.538,2.211-2.044,3.896-.505,1.686-.739,3.724-.702,6.153.05,3.206.203,6.454.52,9.494.317,3.04.706,5.788,1.089,8.165.383,2.377.696,4.263.989,5.75.23,1.168.545,2.02.934,2.597.388.577.947.812,1.705.714.757-.098,1.403-.488,1.956-1.185.553-.697,1.091-1.651,1.569-2.914.606-1.601,1.244-3.612,1.867-6.14.622-2.527,1.111-5.43,1.469-8.582.357-3.151.522-6.439.425-9.663Z" fill="#fff"/>
</svg>