<?xml version="1.0" encoding="UTF-8"?>
<svg id="Ebene_1" data-name="Ebene 1" xmlns="http://www.w3.org/2000/svg" viewBox="0 0 215.8 54">
  <defs>
    <style>
      .cls-1 {
        fill: #5b21b6;
      }
    </style>
  </defs>
  <path class="cls-1" d="M1.3,54V3.6h10.2v40.2h21.9v10.2H1.3ZM4.1,51.3h26.5v-4.6H8.7V6.3h-4.6v45Z"/>
  <path class="cls-1" d="M47.5,54l-7.4-7.4v-24l7.4-7.4h22.5l7.4,7.4v24l-7.4,7.4h-22.5ZM49.1,51.2h19.4l6-6v-21.2l-6-6h-19.5l-6.1,6.1v21l6.2,6.2v-.1ZM51.4,46.6l-3.9-3.8v-16.6l3.7-3.7h15.1l3.7,3.6v16.8l-3.7,3.6h-14.9v.1ZM52.4,43.8h12.6l2.2-2.2v-14.1l-2.2-2.2h-12.6l-2.2,2.2v14.1l2.2,2.2Z"/>
  <path class="cls-1" d="M85.3,54v-31.5l7.4-7.4h13.9l3.7,3.7,3.7-3.7h13.9l7.4,7.4v31.5h-10.2v-26.5l-2.2-2.2h-5.4l-2.2,2.2v24.3h-10.2v-24.3l-2.2-2.2h-5.4l-2.2,2.2v26.5h-10.2.2ZM88.1,51.2h4.6v-25.1l3.7-3.7h7.7l3.9,3.9v23h4.6v-23l3.9-3.9h7.7l3.7,3.7v25.1h4.6v-27.3l-6.1-6.1h-11.6l-4.6,4.6-4.7-4.6h-11.5l-6.1,6.1v27.3h.2Z"/>
  <path class="cls-1" d="M143.4,54v-10.2h9.6v-18.5h-9.6v-10.2h19.8v28.7h9.6v10.2h-29.4ZM146.1,51.2h23.9v-4.6h-9.8v-28.8h-14v4.6h9.4v24.2h-9.4v4.6h-.1ZM151.5,9.5V0h11.6v9.5h-11.6ZM154.7,6.9h5.3V2.3h-5.3v4.6Z"/>
  <path class="cls-1" d="M178.3,54v-10.2h7v-18l-.5-.5h-6.4v-10.2h9.1l2.4,2.9,2.8-2.9h14l7.9,7.9-7.8,7.6-5-5.3h-4.1l-2.2,2.2v16.4h7v10.1h-24.2ZM180.9,51.2h18.9v-4.6h-7.2v-20.7l3.3-3.3h7.4l3.7,4.1,3.6-3.5-5.1-5.3h-11.8l-3.7,3.7-3.4-3.7h-5.7v4.6h4.7l2.4,2.6v21.5h-7.1v4.6h0Z"/>
</svg>