<?xml version="1.0" encoding="UTF-8"?>
<svg id="a" data-name="Vector" xmlns="http://www.w3.org/2000/svg" width="100" height="99.821" viewBox="0 0 100 99.821">
  <path d="M47.928,64.885c-.975-3.001-2.63-5.146-4.479-6.581-1.849-1.435-3.777-2.229-5.778-2.439-1.43-.15-2.648.083-3.678.737-1.031.654-2.11,1.522-3.228,2.615-.502.485-.864.849-1.093,1.095-.228.246-.497.335-.804.265-.308-.07-.539-.272-.694-.603-.155-.331-.329-.691-.52-1.081-.651-1.43-1.603-2.784-2.835-4.101-1.232-1.317-2.568-2.213-4.03-2.717-1.176-.406-2.225-.435-3.155-.063-.931.372-1.913.981-2.928,1.839-.471.395-.811.695-1.025.901-.215.205-.46.248-.737.126-.243-.107-.439-.331-.588-.671-.149-.339-.304-.744-.463-1.214-.603-1.762-1.349-3.231-2.268-4.443-.919-1.211-1.932-2.1-3.06-2.683-1.86-.961-3.51-.727-4.824.801-1.314,1.528-2.049,4.627-1.638,9.62.161,1.957.506,4.337,1.188,6.914.682,2.578,1.599,5.117,2.736,7.602,1.136,2.486,2.398,4.728,3.705,6.763,1.307,2.035,2.509,3.635,3.511,4.886,1.078,1.345,2.131,2.54,3.123,3.611.992,1.071,1.736,1.794,2.241,2.196.12.096.279.208.483.333.203.124.256.049.191-.247-.065-.295-.439-1.014-1.019-2.243-.544-1.151-1.149-2.526-1.81-4.134-.661-1.607-1.15-3.175-1.482-4.674-.333-1.499-.322-2.666-.012-3.453.31-.787,1.095-.917,2.318-.384,1.122.489,2.086,1.318,2.893,2.488.806,1.17,1.511,2.532,2.139,4.067.629,1.535,1.209,3.112,1.768,4.699.559,1.587,1.12,3.039,1.675,4.369.381.912.82,1.789,1.309,2.636.489.847,1.017,1.563,1.565,2.169s1.116,1.034,1.717,1.289c.886.375,1.427.189,1.718-.619.292-.808.443-1.978.485-3.59.041-1.612.039-3.393-.009-5.302-.027-1.075-.016-2.188.01-3.287.026-1.098.262-1.992.701-2.662.439-.67,1.217-.903,2.326-.708,1.223.216,2.243.857,3.038,1.929.795,1.072,1.42,2.367,1.871,3.874.452,1.508.804,3.061,1.069,4.63.266,1.57.502,2.977.708,4.244.344,2.112.778,3.448,1.248,4.218.469.77.972,1.178,1.532,1.253.776.104,1.479-.298,2.199-1.293.721-.994,1.41-2.419,2.091-4.414.682-1.995,1.237-4.408,1.63-7.346.393-2.937.548-6.075.501-9.389-.067-4.77-.558-8.827-1.532-11.828Z" fill="#009213"/>
  <path d="M66.776,65.885c-.086-2.843-.575-5.144-1.393-6.929-.818-1.785-1.83-3.034-2.988-3.791-1.159-.757-2.372-1.021-3.643-.822-1.244.195-2.351.822-3.354,1.899-1.004,1.077-1.79,2.573-2.379,4.535-.588,1.962-.86,4.334-.816,7.161.058,3.732.236,7.512.605,11.049.369,3.538.822,6.737,1.267,9.502.446,2.766.81,4.961,1.151,6.692.267,1.359.635,2.351,1.087,3.023.452.671,1.102.945,1.984.832.881-.114,1.632-.568,2.277-1.379.644-.811,1.27-1.922,1.827-3.392.705-1.863,1.448-4.204,2.173-7.146.724-2.94,1.293-6.319,1.709-9.988.416-3.667.607-7.493.494-11.246Z" fill="#009213"/>
  <path d="M97.812,45.404c-1.508-1.169-3.355-1.242-5.375-.285-1.868.885-3.243,1.952-4.152,3.256-.909,1.305-1.79,2.752-2.659,4.347-.369.667-.646,1.191-.83,1.573-.183.383-.427.634-.727.752-.301.119-.546.073-.738-.136-.191-.208-.398-.476-.623-.803-.936-1.29-2.015-2.1-3.179-2.456-1.164-.356-2.326-.341-3.478.034-1.933.629-3.447,2.175-4.667,4.714-1.221,2.54-1.704,5.789-1.611,9.854.085,3.71.2,7.363.377,10.775.176,3.414.318,6.525.377,9.171.059,2.646-.016,4.734-.079,6.362-.049,1.265.019,2.155.21,2.699s.573.679,1.189.427c.588-.24,1.23-.782,1.942-1.652.712-.869,1.424-1.95,2.118-3.222.598-1.097,1.249-2.416,1.856-3.997.608-1.581,1.201-3.287,1.766-5.136.564-1.847,1.105-3.685,1.667-5.409.561-1.724,1.181-3.229,1.891-4.5.709-1.27,1.526-2.109,2.456-2.52.894-.395,1.664-.523,2.294-.378.63.145,1.267.271,1.903.378.635.106,1.373-.072,2.227-.542,1.364-.751,2.618-2.006,3.77-3.74,1.152-1.734,2.162-3.764,2.933-6.075.771-2.311,1.243-4.643,1.331-6.984.119-3.186-.679-5.338-2.188-6.508Z" fill="#009213"/>
  <path d="M73.445,16.261c-1.905-1.933-4.56-3.217-7.956-3.86h.007c-.119-.034-.213-.16-.208-.284.061-1.452.379-4.457,1.941-5.913.318-.296.232-.514-.202-.5-1.172.036-3.352.542-4.765,3.533-.168.357-.411.339-.533-.036l-1.538-4.745c-.151-.465-.397-.465-.548,0l-1.538,4.745c-.122.375-.365.393-.533.036-1.412-2.991-3.593-3.497-4.765-3.533-.434-.013-.519.204-.202.5,1.562,1.456,1.881,4.461,1.941,5.913.004.103-.062.205-.153.257-3.409.627-6.079,1.901-8.004,3.825-2.856,2.856-4.283,7.036-4.283,12.541,0,4.397.822,8.238,2.465,11.524,1.643,3.287,3.831,5.834,6.563,7.642,2.732,1.808,5.762,2.712,9.09,2.712,3.205,0,6.132-.903,8.782-2.712,2.65-1.807,4.765-4.345,6.348-7.611,1.581-3.266,2.372-7.077,2.372-11.432,0-5.505-1.428-9.706-4.283-12.603ZM63.615,43.53c-.822,1.233-2.034,1.849-3.636,1.849-1.643,0-2.876-.616-3.697-1.849-.823-1.232-1.232-2.998-1.232-5.3,0-2.219.41-3.934,1.232-5.146.821-1.211,2.054-1.818,3.697-1.818,1.602,0,2.814.607,3.636,1.818.822,1.212,1.232,2.927,1.232,5.146,0,2.301-.411,4.067-1.232,5.3Z" fill="#fc6172"/>
  <path d="M41.534,42.437c-2.522-1.223-5.415-.588-8.318-1.005-8.719-1.113-6.133-10.872-1.401-15.2,3.207-3.432,7.275-6.009,10.127-9.855,2.893-3.78,4.419-9.781.282-13.253-5.597-4.875-13.806-1.841-18.419,3.054-8.419,9.126-12.019,28.055-4.751,38.675,2.772,4.343,7.884,6.453,12.938,5.659l.099-.01c3.459-.455,7.315-.805,9.981-3.175,1.571-1.396,1.497-3.908-.538-4.89Z" fill="#009213"/>
</svg>