<?xml version="1.0" encoding="UTF-8"?>
<svg id="a" data-name="Ebene 1" xmlns="http://www.w3.org/2000/svg" width="50" height="50" viewBox="0 0 50 50">
  <g opacity=".6">
    <path d="M24.407,24.083c-.02-1.025-.016-4.248-.016-4.248.039-4.998-1.111-8.722-6.857-6.143-6.007,2.567-8.271,10.11-6.815,16.699,1.332,3.686,5.587,1.33,8.115.095,5.08-2.237,5.638-3.137,5.573-6.403Z" fill="#fff"/>
  </g>
  <g opacity=".6">
    <path d="M24.408,31.651c-.004-1.449-.757-1.731-2.231-1.21-1.258.468-2.459,1.087-3.665,1.662l-.088.043c-4.092,1.813-6.93,5.206-2.876,8.973,1.452,1.502,3.182,2.709,5.11,3.345,3.046.894,3.652-3.208,3.71-5.406.048-1.826.047-4.919.04-7.407Z" fill="#fff"/>
  </g>
  <g opacity=".6">
    <path d="M32.466,13.692c-5.746-2.579-6.897,1.144-6.857,6.143,0,0,.005,3.223-.016,4.248-.065,3.266.493,4.167,5.573,6.403,2.528,1.235,6.784,3.591,8.115-.095,1.456-6.589-.809-14.132-6.815-16.699Z" fill="#fff"/>
  </g>
  <g opacity=".6">
    <path d="M31.576,32.146l-.088-.043c-1.206-.575-2.407-1.195-3.665-1.662-1.474-.521-2.227-.239-2.231,1.21-.007,2.488-.008,5.582.04,7.407.058,2.197.664,6.299,3.71,5.406,1.928-.635,3.658-1.843,5.11-3.345,4.054-3.766,1.216-7.16-2.876-8.973Z" fill="#fff"/>
  </g>
  <path d="M37.98,14.347c-1.828-1.854-4.376-3.087-7.634-3.704h.007c-.114-.032-.205-.154-.2-.272.058-1.393.364-4.277,1.863-5.674.305-.284.223-.493-.194-.48-1.124.035-3.217.52-4.572,3.391-.162.342-.395.325-.511-.035l-1.476-4.553c-.145-.446-.381-.446-.526,0l-1.476,4.553c-.117.36-.35.377-.511.035-1.355-2.87-3.448-3.356-4.572-3.391-.417-.013-.498.196-.194.48,1.499,1.397,1.805,4.281,1.863,5.674.004.099-.06.197-.147.246-3.271.602-5.833,1.824-7.68,3.671-2.74,2.741-4.11,6.752-4.11,12.034,0,4.219.788,7.905,2.365,11.058,1.576,3.154,3.676,5.598,6.298,7.333,2.621,1.735,5.529,2.602,8.722,2.602,3.075,0,5.884-.867,8.427-2.602,2.543-1.734,4.573-4.169,6.091-7.303,1.517-3.134,2.276-6.791,2.276-10.97,0-5.283-1.37-9.314-4.11-12.093ZM10.719,30.391c-1.456-6.589.809-14.132,6.815-16.699,5.746-2.579,6.897,1.144,6.857,6.143,0,0-.005,3.223.016,4.248.065,3.266-.493,4.167-5.573,6.403-2.528,1.235-6.784,3.591-8.115-.095ZM24.368,39.058c-.058,2.197-.664,6.299-3.71,5.406-1.928-.635-3.658-1.843-5.11-3.345-4.054-3.766-1.216-7.16,2.876-8.973l.088-.043c1.206-.575,2.407-1.195,3.665-1.662,1.474-.521,2.227-.239,2.231,1.21.007,2.488.008,5.582-.04,7.407ZM34.451,41.119c-1.452,1.502-3.182,2.709-5.11,3.345-3.046.894-3.652-3.208-3.71-5.406-.048-1.826-.047-4.919-.04-7.407.004-1.449.757-1.731,2.231-1.21,1.258.468,2.459,1.087,3.665,1.662l.088.043c4.092,1.813,6.93,5.206,2.876,8.973ZM39.281,30.391c-1.332,3.686-5.587,1.33-8.115.095-5.08-2.237-5.638-3.137-5.573-6.403.02-1.025.016-4.248.016-4.248-.039-4.998,1.111-8.722,6.857-6.143,6.007,2.567,8.271,10.11,6.815,16.699Z" fill="#fff"/>
  <g>
    <path d="M11.997,29.85c-.004.819,1.496,2.127,1.961,1.103.551-1.215-1.956-2.162-1.961-1.103ZM13.019,30.696c.223-.068.346-.115.598-.222-.105.203-.388.296-.598.222Z" fill="#fff"/>
    <path d="M20.045,26.715c-.641.903,1.62,1.129,2.127.381.273-.402-1.484-1.287-2.127-.381ZM21.659,27.176c-.113-.214-.55-.308-.958-.451.318-.042,1.116.26,1.067.378-.008.019-.063.067-.108.073Z" fill="#fff"/>
    <path d="M20.538,24.454c-.191.395.064,1.337.375,1.488.237.116,1.647.461,2.049.292.014-.005.213-.118.221-.126.515-.5-1.918-3.264-2.644-1.655ZM21.209,24.907c.332.109.488.167.784.284.323.181.474.27.755.438-.458-.09-1.046-.483-1.539-.721Z" fill="#fff"/>
    <path d="M22.39,21.85c-.405-.392-1.127-.204-1.279.182-.268.68,1.042,2.486,1.654,2.737.282.116.956,0,.968-.194.005-.082-1.098-2.489-1.343-2.726ZM22.057,23.147c.455.443.844,1.158,1.259,1.105-.262.322-1.049-.634-1.259-1.105Z" fill="#fff"/>
    <path d="M18.019,27.266c-2.063,1.006-.096,1.993,1.005,1.251.064-.043.648-.524.686-.566.513-.589-.373-1.327-1.691-.684ZM19.005,28.205c.336-.449-.347-.513-.448-.859.078-.05.911.33.722.609-.028.041-.228.245-.275.25Z" fill="#fff"/>
    <path d="M17.201,25.314c-.112,2.01,2.28,1.782,3.104.552.215-1.778-2.781-2.585-3.104-.552ZM18.404,26.227s.355-.213.484-.249c.288-.081,1.12-.052,1.12-.052-.404.419-.966.065-1.604.301ZM17.893,25.164c.602-.13,1.334-.122,1.755.173-.649-.097-1.004-.126-1.755-.173Z" fill="#fff"/>
    <path d="M21.902,19.82c-.193-.434-.46-.922-.432-1.409.036-.647.3-1.266.606-1.477.65-.449,1.091,1.265,1.229,2.506.084.747.306,1.999.05,2.039-.183.029-.566-.16-.917-.507-.259-.256-.363-.74-.518-1.106-.008-.019-.011-.028-.019-.047ZM22.799,18.091c.208.759.182,1.679.337,2.334.031.133.031.292.108.213.038-.005-.042-1.67-.445-2.546ZM21.918,18.9c.168.697.65,1.601,1.034,2.081-.422-.84-.633-1.274-1.034-2.081Z" fill="#fff"/>
    <path d="M21.259,18.777c.16.376.249.753.447,1.036.068.097.121.222.144.349.24,1.309-.921,1.642-1.746,1.035-2.123-1.562.151-4.781,1.155-2.42ZM20.073,20.796c.474.574,1.281.542,1.487.103.264-.563-.486-2.144-1.034-2.4-.102-.048-.433-.044-.433-.044,1.118.62,2.02,3.454-.02,2.341Z" fill="#fff"/>
    <path d="M18.072,22.955c.279.474,1.666,1.274,2.113,1.279.202.002.409-.355.484-.506,1.276-2.911-3.71-3.057-2.597-.772ZM19.777,23.426c.176-.196.588-.824.818-.731-.17.372-.442.539-.818.731Z" fill="#fff"/>
    <path d="M16.13,21.246c.39.1,2.816-.253,2.947-.485-.251-.626-.243-1.82-1.028-2.144-.606-.25-2.628.496-3.017,1.053-.381.545.383,1.393,1.098,1.576ZM18.329,19.801c-.813-.144-1.26-.174-2.25-.125.798-.087,1.717-.287,2.25.125ZM16.294,20.592c-.193-.15-.291-.223-.495-.361.17-.223.687.213.495.361Z" fill="#fff"/>
    <path d="M22.069,16.308c.029.04.491.208.604.339.462.536.526,1.395.705.277.249-1.556-.773-3.498-1.457-2.647-.206.256-.123,1.653.148,2.032ZM23.062,15.148c-.279-.164-.663-.409-.919-.021-.065.002.006-.216.01-.224.227-.348.678-.215.909.245Z" fill="#fff"/>
    <path d="M18.759,14.721c-1.867,1.14-1.094,2.843.306,2.954.12.01,2.027-.556,2.099-.632.537-.567.539-2.27-.06-2.691-.185-.13-2.022.172-2.345.369ZM19.682,16.512c.206-.705.797-1.224,1.315-1.485-.507.522-.772.834-1.315,1.485ZM20.346,14.835c-.314.17-1.424.383-1.898.756.502-.707,1.389-.868,2.007-.94.142.065-.039.147-.109.184Z" fill="#fff"/>
    <path d="M15.053,22.127c-1.095.842.638,2.82,1.998,2.165,1.517-1.136-.589-3.067-1.998-2.165ZM16.101,23.365c.407.069.604.107.987.189-.301.119-.741.01-.987-.189Z" fill="#fff"/>
    <path d="M14.514,19.75c-.852-.513-2.147.202-2.445,1.02-.406,1.118,2.248,2.04,2.991.826.086-.14-.414-1.767-.546-1.846ZM13.189,20.347c.454.051.724.346,1.113.554-.42-.075-.987-.296-1.113-.554Z" fill="#fff"/>
    <path d="M13.751,18.719c1.131,1.048,4.097-.283,3.33-1.869-.756-.338-3.657,1.169-3.33,1.869ZM14.991,18.108c.332-.333,1.004-.612,1.515-.684-.637.271-.962.419-1.515.684Z" fill="#fff"/>
    <path d="M11.398,22.757c-.411,1.756,2.532,3.127,3.33,1.254.316-1.099-2.657-2.493-3.33-1.254ZM13.818,24.103c-.279-.593-.957-.883-1.466-1.234.374-.011,1.649.786,1.616,1.078-.005.047-.077.156-.15.156Z" fill="#fff"/>
    <path d="M16.783,30.011c.364-.369.382-1.148.139-1.353-.429-.361-2.394.309-2.726.833-.153.241.013,1.28.216,1.425.085.061,2.151-.682,2.371-.905ZM15.833,29.427c-.455.311-1.181.418-1.125,1.029-.318-.533.693-.958,1.125-1.029Z" fill="#fff"/>
    <path d="M14.527,27.783c-.368-.217-.841-.49-.922-.911-.108-.558.066-1.177.509-1.603.919-.884,2.449-.267,2.83.565.233.509.608,1.34.054,1.835-.396.354-1.045.692-1.546.675-.362-.012-.588-.349-.887-.537-.015-.01-.022-.015-.037-.025ZM15.757,25.412c.518.391.552,1.215.855,1.59.061.076.052.23.214.031.078-.065-.182-1.364-1.069-1.621ZM14.376,26.993c.408.449,1.225.824,1.881.791-.711-.268-1.088-.431-1.881-.791Z" fill="#fff"/>
    <path d="M11.092,26.133c.517.063.981.297,1.385.626.292.239.564.47.902.541.115.024.24.071.327.147.909.78-.348,2.206-1.114,1.779-.908-.506-1.755-1.983-1.5-3.092ZM12.405,28.853c.593.496,1.328-.042,1.337-.577.011-.687-1.47-1.395-1.978-1.547-.095-.028-.319-.02-.319-.02,1.342.568,3.032,2.703.96,2.144Z" fill="#fff"/>
    <path d="M11.212,24.391c-.28-.016-.391.515-.29.836.178.565,1.477,1.409,1.883,1.228.187-.083.389-.874.265-1.088-.052-.09-1.689-.965-1.858-.975ZM11.683,25.531c.346.104.89.462,1.018-.002.093.559-.736.25-1.018.002Z" fill="#fff"/>
    <path d="M23.698,23.892c.185.222.358.112.34-.098-.032-.37-.603-1.775-.847-2.041-.113-.123-.411.11-.398.298.006.079.793,1.707.905,1.842ZM23.614,23.045c-.185-.313-.4-.894-.579-.794.08-.306.458.494.579.794Z" fill="#fff"/>
    <path d="M16.511,36.429c.785-1.737-1.703-2.114-1.956-.276-.136.988,1.169,2.018,1.956.276ZM14.935,35.916c.101.447.452.559.792.762-.27.126-.905-.332-.874-.593.005-.042.046-.152.082-.168Z" fill="#fff"/>
    <path d="M16.677,39.172c.126-.507-.307-1.37-.517-1.501-.16-.1-1.13-.226-1.352.286-.008.016-.11.333-.114.351-.235,1.216,1.52,2.905,1.983.864ZM15.993,39.054c-.229-.02-.337-.029-.535-.045-.219-.086-.318-.127-.493-.206.274-.142.683.132,1.028.25Z" fill="#fff"/>
    <path d="M18.947,35.286c1.997-1.578.351-2.633-.943-1.692-.075.055-.746.737-.787.803-.561.914.454,1.896,1.73.888ZM18.018,34.005c-.39.615.335.699.418,1.199-.079.079-.939-.432-.728-.842.031-.06.259-.349.311-.357Z" fill="#fff"/>
    <path d="M19.554,37.212c.447-2.546-2.387-.942-2.816.281-.172,2.089,2.645,1.525,2.816-.281ZM18.557,36.497s-.326.318-.446.392c-.269.166-1.083.413-1.083.413.367-.638.942-.404,1.529-.805ZM19.015,37.528c-.481.284-1.159.486-1.588.308.63-.122.995-.17,1.588-.308Z" fill="#fff"/>
    <path d="M18.878,39.715c-.225-.346-1.407-.665-1.832-.478-.192.085-.334.546-.379.726-.744,2.166,3.059,1.667,2.211-.248ZM17.495,39.844c-.139.244-.458.912-.663.944.128-.35.354-.625.663-.944Z" fill="#fff"/>
    <path d="M20.285,40.807c-.25-.041-1.994.622-2.089.803.232.372.275.895.886,1.048.472.118,1.772-.128,1.975-.561.198-.424-.313-1.214-.772-1.29ZM18.831,42.094c.635.009.961.005,1.586-.029-.501.062-1.157.214-1.586.029ZM20.22,41.362c.133.111.2.166.334.274-.089.185-.448-.137-.334-.274Z" fill="#fff"/>
    <path d="M20.888,39.895c.591-.926-.291-2.659-1.273-1.692-1.165,1.147.51,2.889,1.273,1.692ZM20.24,38.885c-.259.016-.391.023-.659.035.21-.183.503-.176.659-.035Z" fill="#fff"/>
    <path d="M21.396,42.035c.642.432,1.495-.105,1.479-1.126-.022-1.395-1.609-1.702-1.969-.514-.042.137.391,1.574.49,1.641ZM22.205,41.463c-.321-.033-.541-.304-.807-.473.271.039.67.215.807.473Z" fill="#fff"/>
    <path d="M22.106,43.771c1.867-.47-1.612-1.346-2.271-.742-.339.31,1.327.98,2.271.742ZM21.327,43.453c-.408-.043-.725-.203-.83-.368.328.154.494.228.83.368Z" fill="#fff"/>
    <path d="M23.16,38.399c.232-1.777-1.392-2.476-1.787-.319-.212,1.159,1.555,2.101,1.787.319ZM21.856,37.81c.127.529.505.647.798.856-.199.139-.914-.357-.886-.66.004-.049.048-.177.088-.195Z" fill="#fff"/>
    <path d="M20.429,32.651c-.382.31-.495.975-.304,1.132.335.277,1.946-.601,2.334-1.169.178-.261.366-1.068.234-1.105-.056-.015-2.032.953-2.264,1.141ZM21.19,32.999c.429-.314,1.025-.584,1.134-1.044.125.324-.768.929-1.134,1.044Z" fill="#fff"/>
    <path d="M21.807,34.259c.177.144.366.289.314.669-.068.502-.276,1.153-.582,1.672-.641,1.091-1.547.795-1.752.017-.129-.49-.426-1.314.122-1.886.392-.409,1.009-.798,1.379-.853.262-.039.358.235.5.364.007.007.01.01.017.017ZM20.569,36.804c-.294-.278-.205-1.119-.412-1.456-.042-.068-.018-.228-.174.002-.072.08.036,1.388.586,1.455ZM21.717,34.981c-.141-.338-.617-.591-1.162-.466.54.158.778.288,1.162.466Z" fill="#fff"/>
    <path d="M22.797,34.426c-.115-.048-.214-.186-.394-.155-.062.011-.116-.006-.145-.055-.298-.51.837-2.09,1.344-2.286,1.029-.398.183,2.912-.806,2.496ZM23.585,32.194c-.242-.1-.942.703-1.108,1.23-.213.677.466.821.764.547.055-.051.22-.295.22-.295-.808.847-1.244-.537.125-1.482Z" fill="#fff"/>
    <path d="M23.281,36.224c.145-.242.218-1.107.184-1.372-.06-.465-.878-.135-1.161.251-.131.177-.255,1.055-.162,1.215.039.067,1.052.052,1.139-.094ZM23.001,35.349c-.211.179-.567.094-.63.627-.079-.518.464-.664.63-.627Z" fill="#fff"/>
    <path d="M36.042,30.953c.465,1.024,1.964-.284,1.961-1.103-.005-1.059-2.512-.112-1.961,1.103ZM36.384,30.474c.252.106.375.154.598.222-.21.074-.493-.019-.598-.222Z" fill="#fff"/>
    <path d="M27.828,27.095c.507.749,2.769.523,2.127-.381-.644-.906-2.4-.022-2.127.381ZM28.232,27.103c-.049-.118.749-.42,1.067-.378-.408.143-.845.237-.958.451-.046-.006-.101-.054-.108-.073Z" fill="#fff"/>
    <path d="M26.818,26.108c.008.008.207.121.221.126.401.169,1.811-.176,2.049-.292.311-.152.566-1.093.375-1.488-.726-1.61-3.159,1.155-2.644,1.655ZM27.252,25.629c.282-.168.432-.257.755-.438.295-.117.452-.174.784-.284-.493.238-1.081.631-1.539.721Z" fill="#fff"/>
    <path d="M26.267,24.576c.012.193.686.309.968.194.612-.251,1.923-2.057,1.654-2.737-.152-.387-.874-.574-1.279-.182-.245.237-1.348,2.645-1.343,2.726ZM26.685,24.252c.415.053.804-.662,1.259-1.105-.21.471-.997,1.427-1.259,1.105Z" fill="#fff"/>
    <path d="M30.291,27.95c.037.043.622.523.686.566,1.101.742,3.068-.244,1.005-1.251-1.318-.643-2.204.095-1.691.684ZM30.72,27.955c-.188-.279.645-.659.722-.609-.101.346-.784.41-.448.859-.047-.005-.247-.209-.275-.25Z" fill="#fff"/>
    <path d="M29.694,25.866c.825,1.23,3.216,1.458,3.104-.552-.323-2.033-3.319-1.226-3.104.552ZM29.991,25.926s.832-.029,1.12.052c.129.036.484.249.484.249-.639-.235-1.2.118-1.604-.301ZM30.352,25.337c.422-.294,1.154-.302,1.755-.173-.751.047-1.106.075-1.755.173Z" fill="#fff"/>
    <path d="M28.079,19.866c-.155.367-.258.85-.518,1.106-.35.346-.734.536-.917.507-.256-.04-.033-1.292.05-2.039.139-1.241.579-2.955,1.229-2.506.306.211.569.83.606,1.477.027.487-.239.976-.432,1.409-.008.019-.011.028-.019.047ZM26.757,20.638c.077.079.076-.08.108-.213.155-.655.129-1.574.337-2.334-.402.876-.482,2.542-.445,2.546ZM27.048,20.98c.384-.48.866-1.383,1.034-2.081-.401.807-.612,1.241-1.034,2.081Z" fill="#fff"/>
    <path d="M29.896,21.197c-.825.607-1.986.274-1.746-1.035.023-.126.076-.252.144-.349.198-.283.287-.66.447-1.036,1.005-2.361,3.279.857,1.155,2.42ZM29.907,18.455s-.331-.004-.433.044c-.548.256-1.298,1.837-1.034,2.4.206.439,1.013.471,1.487-.103-2.041,1.113-1.138-1.721-.02-2.341Z" fill="#fff"/>
    <path d="M29.331,23.727c.075.151.282.509.484.506.447-.005,1.834-.805,2.113-1.279,1.113-2.285-3.873-2.139-2.597.772ZM29.406,22.695c.23-.092.642.536.818.731-.376-.193-.648-.359-.818-.731Z" fill="#fff"/>
    <path d="M34.968,19.671c-.389-.557-2.411-1.303-3.017-1.053-.785.324-.777,1.518-1.028,2.144.131.232,2.558.585,2.947.485.715-.183,1.479-1.03,1.098-1.576ZM33.921,19.676c-.99-.05-1.437-.019-2.25.125.533-.412,1.452-.212,2.25-.125ZM34.2,20.231c-.203.138-.302.212-.495.361-.192-.149.325-.584.495-.361Z" fill="#fff"/>
    <path d="M28.08,14.277c-.684-.851-1.705,1.091-1.457,2.647.179,1.118.243.259.705-.277.113-.131.575-.299.604-.339.272-.379.354-1.775.148-2.032ZM27.847,14.903c.005.007.075.226.01.224-.256-.388-.64-.143-.919.021.231-.46.682-.593.909-.245Z" fill="#fff"/>
    <path d="M28.896,14.353c-.599.421-.598,2.124-.06,2.691.073.077,1.98.642,2.099.632,1.4-.112,2.173-1.814.306-2.954-.323-.197-2.16-.499-2.345-.369ZM29.003,15.027c.518.261,1.109.78,1.315,1.485-.543-.651-.808-.962-1.315-1.485ZM29.545,14.651c.618.072,1.505.233,2.007.94-.474-.372-1.583-.586-1.898-.756-.069-.037-.251-.119-.109-.184Z" fill="#fff"/>
    <path d="M32.949,24.292c1.361.655,3.093-1.323,1.998-2.165-1.41-.902-3.516,1.029-1.998,2.165ZM32.912,23.554c.382-.082.58-.12.987-.189-.246.199-.686.308-.987.189Z" fill="#fff"/>
    <path d="M34.941,21.597c.743,1.214,3.397.292,2.991-.826-.298-.819-1.592-1.533-2.445-1.02-.132.079-.632,1.706-.546,1.846ZM35.698,20.901c.39-.208.659-.503,1.113-.554-.126.258-.693.479-1.113.554Z" fill="#fff"/>
    <path d="M32.92,16.85c-.767,1.587,2.198,2.918,3.33,1.869.327-.7-2.574-2.207-3.33-1.869ZM33.493,17.424c.512.072,1.183.351,1.515.684-.553-.265-.878-.413-1.515-.684Z" fill="#fff"/>
    <path d="M35.272,24.011c.799,1.873,3.741.503,3.33-1.254-.674-1.239-3.646.155-3.33,1.254ZM36.032,23.947c-.033-.292,1.242-1.089,1.616-1.078-.509.351-1.187.641-1.466,1.234-.073,0-.145-.109-.15-.156Z" fill="#fff"/>
    <path d="M35.588,30.916c.202-.145.368-1.184.216-1.425-.331-.524-2.297-1.194-2.726-.833-.244.205-.225.984.139,1.353.22.223,2.286.966,2.371.905ZM35.292,30.456c.056-.611-.669-.718-1.125-1.029.431.07,1.442.496,1.125,1.029Z" fill="#fff"/>
    <path d="M35.436,27.808c-.299.189-.525.525-.887.537-.502.017-1.15-.321-1.546-.675-.554-.496-.179-1.326.054-1.835.381-.833,1.911-1.449,2.83-.565.443.426.617,1.045.509,1.603-.081.42-.553.694-.922.911-.015.01-.022.015-.037.025ZM33.174,27.032c.163.199.153.045.214-.031.302-.375.336-1.199.855-1.59-.888.257-1.148,1.555-1.069,1.621ZM33.742,27.784c.656.033,1.473-.342,1.881-.791-.794.36-1.171.523-1.881.791Z" fill="#fff"/>
    <path d="M37.408,29.225c-.766.427-2.023-.999-1.114-1.779.088-.075.212-.122.327-.147.338-.071.609-.302.902-.541.403-.329.867-.563,1.385-.626.255,1.109-.592,2.585-1.5,3.092ZM38.555,26.708s-.224-.008-.319.02c-.508.151-1.989.86-1.978,1.547.008.535.744,1.073,1.337.577-2.072.559-.382-1.576.96-2.144Z" fill="#fff"/>
    <path d="M36.929,25.366c-.124.215.078,1.005.265,1.088.406.181,1.705-.663,1.883-1.228.101-.321-.01-.852-.29-.836-.169.01-1.806.885-1.858.975ZM37.298,25.529c.128.464.672.106,1.018.002-.282.248-1.111.557-1.018-.002Z" fill="#fff"/>
    <path d="M27.207,22.05c.013-.188-.286-.42-.398-.298-.244.266-.815,1.671-.847,2.041-.018.211.154.321.34.098.112-.135.9-1.763.905-1.842ZM26.965,22.25c-.179-.099-.394.481-.579.794.12-.3.499-1.1.579-.794Z" fill="#fff"/>
    <path d="M35.445,36.153c-.253-1.838-2.742-1.46-1.956.276.788,1.742,2.092.712,1.956-.276ZM35.148,36.084c.031.261-.604.719-.874.593.34-.202.691-.315.792-.762.037.017.077.127.082.168Z" fill="#fff"/>
    <path d="M35.306,38.308c-.004-.019-.106-.335-.114-.351-.222-.511-1.192-.386-1.352-.286-.21.131-.643.993-.517,1.501.463,2.041,2.218.352,1.983-.864ZM35.035,38.803c-.174.079-.274.12-.493.206-.198.016-.306.025-.535.045.344-.119.753-.393,1.028-.25Z" fill="#fff"/>
    <path d="M32.782,34.397c-.041-.066-.712-.749-.787-.803-1.294-.942-2.94.114-.943,1.692,1.276,1.008,2.291.026,1.73-.888ZM32.292,34.362c.211.409-.649.921-.728.842.082-.5.808-.584.418-1.199.052.008.28.297.311.357Z" fill="#fff"/>
    <path d="M33.261,37.493c-.428-1.222-3.263-2.827-2.816-.281.17,1.806,2.988,2.37,2.816.281ZM32.971,37.302s-.814-.248-1.083-.413c-.12-.074-.446-.392-.446-.392.587.401,1.161.167,1.529.805ZM32.573,37.836c-.429.178-1.107-.024-1.588-.308.593.138.958.186,1.588.308Z" fill="#fff"/>
    <path d="M33.332,39.963c-.045-.18-.187-.642-.379-.726-.425-.187-1.607.133-1.832.478-.848,1.915,2.954,2.414,2.211.248ZM33.169,40.789c-.205-.032-.524-.7-.663-.944.309.32.535.595.663.944Z" fill="#fff"/>
    <path d="M28.942,42.097c.203.433,1.503.679,1.975.561.611-.153.654-.677.886-1.048-.095-.182-1.839-.845-2.089-.803-.459.076-.971.866-.772,1.29ZM29.583,42.065c.625.034.951.038,1.586.029-.429.185-1.085.033-1.586-.029ZM29.446,41.636c.134-.108.201-.163.334-.274.113.137-.246.459-.334.274Z" fill="#fff"/>
    <path d="M30.386,38.203c-.982-.967-1.864.766-1.273,1.692.764,1.197,2.438-.546,1.273-1.692ZM30.42,38.92c-.268-.013-.4-.02-.659-.035.156-.14.449-.148.659.035Z" fill="#fff"/>
    <path d="M29.094,40.395c-.361-1.188-1.947-.88-1.969.514-.016,1.021.837,1.558,1.479,1.126.099-.067.532-1.503.49-1.641ZM28.602,40.99c-.266.169-.485.44-.807.473.137-.259.536-.435.807-.473Z" fill="#fff"/>
    <path d="M30.165,43.029c-.66-.604-4.138.272-2.271.742.944.238,2.61-.432,2.271-.742ZM29.504,43.084c-.105.166-.422.326-.83.368.336-.141.502-.215.83-.368Z" fill="#fff"/>
    <path d="M28.627,38.08c-.395-2.157-2.019-1.458-1.787.319.232,1.782,2,.841,1.787-.319ZM28.232,38.005c.028.304-.687.799-.886.66.293-.209.671-.326.798-.856.04.019.084.147.088.195Z" fill="#fff"/>
    <path d="M27.307,31.51c-.132.036.056.844.234,1.105.387.567,1.998,1.446,2.334,1.169.191-.157.078-.822-.304-1.132-.231-.188-2.208-1.157-2.264-1.141ZM27.676,31.955c.108.46.705.73,1.134,1.044-.366-.115-1.259-.72-1.134-1.044Z" fill="#fff"/>
    <path d="M28.211,34.242c.142-.128.238-.403.5-.364.371.055.988.445,1.379.853.548.572.251,1.397.122,1.886-.205.778-1.111,1.074-1.752-.017-.305-.519-.514-1.17-.582-1.672-.051-.38.137-.525.314-.669.007-.007.01-.01.017-.017ZM30.017,35.349c-.156-.23-.132-.07-.174-.002-.207.337-.118,1.178-.412,1.456.55-.067.658-1.375.586-1.455ZM29.446,34.515c-.545-.125-1.021.128-1.162.466.384-.178.622-.308,1.162-.466Z" fill="#fff"/>
    <path d="M26.397,31.93c.508.196,1.642,1.776,1.344,2.286-.029.049-.083.066-.145.055-.18-.032-.279.106-.394.155-.989.417-1.835-2.893-.806-2.496ZM26.539,33.676s.164.244.22.295c.298.274.977.13.764-.547-.166-.528-.866-1.331-1.108-1.23,1.369.946.932,2.329.125,1.482Z" fill="#fff"/>
    <path d="M27.859,36.318c.093-.16-.031-1.038-.162-1.215-.284-.385-1.102-.716-1.161-.251-.034.265.039,1.13.184,1.372.088.146,1.1.162,1.139.094ZM27.629,35.976c-.063-.534-.419-.448-.63-.627.167-.036.71.11.63.627Z" fill="#fff"/>
  </g>
</svg>