<?xml version="1.0" encoding="UTF-8"?>
<svg id="a" data-name="Ebene 1" xmlns="http://www.w3.org/2000/svg" width="50" height="50" viewBox="0 0 50 50">
  <g opacity=".6">
    <path d="M21.486,13.63c-3.204,1.413-10.74,6.139-9.704,19.071.118,1.468-.088,1.51-.492.095-.819-2.868-1.737-8.173.519-13.335,1.471-3.365,4.873-5.969,9.551-6.315.833-.062.891.147.126.484Z" fill="#fff"/>
  </g>
  <path d="M37.705,14.573c-1.79-1.815-4.283-3.021-7.472-3.625h.006c-.112-.032-.2-.15-.195-.267.057-1.364.356-4.187,1.823-5.554.298-.278.218-.483-.19-.47-1.101.034-3.149.509-4.475,3.319-.158.335-.386.318-.501-.034l-1.445-4.457c-.142-.437-.373-.437-.515,0l-1.445,4.457c-.114.352-.343.369-.501.034-1.326-2.81-3.375-3.285-4.475-3.319-.408-.013-.488.192-.19.47,1.467,1.368,1.767,4.19,1.823,5.554.004.097-.058.193-.144.241-3.202.589-5.71,1.785-7.518,3.593-2.682,2.683-4.023,6.609-4.023,11.779,0,4.13.772,7.737,2.315,10.824,1.543,3.088,3.598,5.48,6.165,7.177,2.566,1.698,5.412,2.547,8.538,2.547,3.01,0,5.76-.848,8.248-2.547,2.489-1.698,4.476-4.081,5.962-7.148,1.485-3.068,2.228-6.647,2.228-10.737,0-5.171-1.341-9.117-4.023-11.837ZM21.486,13.63c-3.204,1.413-10.74,6.139-9.704,19.071.118,1.468-.088,1.51-.492.095-.819-2.869-1.737-8.173.519-13.335,1.471-3.365,4.873-5.969,9.551-6.315.833-.062.891.147.126.484Z" fill="#fff"/>
</svg>